<?xml version="1.0" encoding="utf-8"?>
<!-- Svg Vector Icons : http://www.onlinewebfonts.com/icon -->
<!DOCTYPE svg PUBLIC "-//W3C//DTD SVG 1.1//EN" "http://www.w3.org/Graphics/SVG/1.1/DTD/svg11.dtd">
<svg version="1.1" xmlns="http://www.w3.org/2000/svg" xmlns:xlink="http://www.w3.org/1999/xlink" x="0px" y="0px" viewBox="0 0 256 256" enable-background="new 0 0 256 256" xml:space="preserve">
<metadata> Svg Vector Icons : http://www.onlinewebfonts.com/icon </metadata>
<g><g><g><path fill="#000000" d="M114.1,23.8v13.7l-2.7,0.6c-4.3,0.9-11,3.1-16,5.5C76,52.9,65.3,69.1,65.3,89.1c0,11.2,3.8,21.4,10.7,29.2c8.3,9.2,19.9,15.9,39.5,22.9c15.8,5.6,21.9,8.7,26.8,13.5c4.4,4.3,5.3,6.5,5.3,12.2c0,4.1-0.1,4.9-1.2,6.9c-5.1,9.8-20.7,13.3-42.3,9.6c-8.7-1.5-19.2-4.9-27.3-9l-4.5-2.2l-0.5,1.5c-0.2,0.8-2.1,8.1-4.2,16.2c-2.1,8.1-3.8,15.1-4,15.5c-0.4,1.4,11.2,6.3,21.7,8.9c6.8,1.8,16.3,3.3,22.8,3.8l4.4,0.3l0.1,13.7l0.1,13.7h14.1h14.1v-14.7v-14.7l3.6-0.8c32.6-7.2,51.2-30.7,47.5-60.4c-1.4-11.3-5.8-20-14-27.8c-7-6.6-17.2-12.5-30.2-17.4c-20.6-7.7-28.4-11.7-33.8-16.8c-3.5-3.3-4.2-5.1-4.2-9.7c0-3.5,0.1-4.2,1.3-6.4c3.6-6.5,10.9-9.4,24-9.4c12.1,0,22.4,2.1,33.9,6.8c3.4,1.4,6.4,2.6,6.6,2.6c0.3,0.1,8.5-30.7,8.6-32c0-0.6-4.4-2.6-10-4.5c-6.5-2.2-14.8-4-22-4.7c-2.8-0.3-6.2-0.6-7.5-0.7l-2.4-0.2V22.6V10h-14.1h-14.1L114.1,23.8L114.1,23.8z"/></g></g></g>
</svg>